<?xml version="1.0" encoding="utf-8"?>
<!-- Generator: Adobe Illustrator 27.0.1, SVG Export Plug-In . SVG Version: 6.00 Build 0)  -->
<svg version="1.1" id="Layer_1" xmlns="http://www.w3.org/2000/svg" xmlns:xlink="http://www.w3.org/1999/xlink" x="0px" y="0px"
	 viewBox="0 0 201.25 100.1" style="enable-background:new 0 0 201.25 100.1;" xml:space="preserve">
<style type="text/css">
	.st0{fill:#FFFFFF;}
</style>
<g>
	<path class="st0" d="M36.36,72.5V50.09h3.91c1.12,0,2.07,0.39,2.86,1.17c0.78,0.78,1.17,1.73,1.17,2.85v18.37L36.36,72.5
		L36.36,72.5z"/>
	<path class="st0" d="M73.92,72.5h-3.92c-1.12,0-2.04-0.36-2.74-1.06c-0.71-0.71-1.06-1.62-1.06-2.74V53.46
		c0-1.79-0.54-3.1-1.62-3.92c-1.09-0.82-2.29-1.23-3.64-1.23c-1.34,0-2.54,0.42-3.58,1.23c-1.04,0.82-1.57,2.13-1.57,3.92V72.5
		h-7.84V55.04c0-5.08,1.32-8.47,3.97-10.19c2.65-1.72,5.58-2.65,8.79-2.8c3.29,0,6.31,0.86,9.07,2.57
		c2.76,1.72,4.14,5.19,4.14,10.41L73.92,72.5L73.92,72.5z"/>
	<path class="st0" d="M77.33,72.5V41.81c0-2.68,0.7-4.7,2.13-6.05c1.34-1.27,3.54-1.9,6.61-1.9c0.75,0,1.34,0.04,1.79,0.11
		c0.82,0,1.45,0.04,1.9,0.11v6.16h-2.01c-1.04,0-1.79,0.15-2.24,0.45c-0.37,0.3-0.56,0.9-0.56,1.79v2.01h4.81v1.68
		c0,1.12-0.37,2.04-1.12,2.74c-0.75,0.7-1.6,1.06-2.57,1.06h-1.12v22.51L77.33,72.5L77.33,72.5z"/>
	<path class="st0" d="M111.4,63.32h5.55c-0.82,3.13-2.39,5.53-4.7,7.17c-2.32,1.72-5.23,2.57-8.74,2.57c-4.25,0-7.58-1.38-9.97-4.14
		c-2.39-2.68-3.58-6.53-3.58-11.53c0-4.77,1.15-8.51,3.47-11.2c2.39-2.76,5.71-4.14,9.97-4.14c4.48,0,7.95,1.34,10.42,4.03
		c2.39,2.77,3.58,6.61,3.58,11.54v0.78v0.45c0,0.37-0.04,0.64-0.11,0.78H97.91c0.08,2.32,0.64,4.03,1.68,5.15
		c0.97,1.2,2.43,1.81,4.37,1.79c3.29-0.03,4.33-1.55,4.53-1.79c0.24-0.3,0.36-0.52,0.84-0.89C109.82,63.51,110.51,63.32,111.4,63.32
		 M97.91,54.58h11.42c-0.15-2.01-0.67-3.51-1.56-4.47c-0.97-1.04-2.35-1.57-4.14-1.57c-1.65,0-2.99,0.53-4.03,1.57
		C98.55,51.15,97.99,52.65,97.91,54.58"/>
	<path class="st0" d="M140.32,70.71v-1.9c-1.34,2.09-3.16,3.4-5.43,3.92c-2.28,0.52-4.53,0.33-6.78-0.56s-4.16-2.56-5.77-4.98
		c-1.6-2.43-2.4-5.62-2.4-9.58c0-4.63,1.06-8.38,3.19-11.25c2.13-2.88,5.54-4.31,10.25-4.31c3.58,0,6.9,0.97,9.97,2.91
		c3.06,1.94,4.59,5.53,4.59,10.75V71.5c0,5.23-1.53,8.79-4.59,10.7c-3.07,1.9-5.85,2.8-9.43,2.8c-6.87,0-11.66-3.16-13.31-9.58h8.18
		c0.59,1.04,1.51,1.85,2.74,2.41c1.23,0.56,2.46,0.7,3.69,0.44c1.23-0.26,2.35-0.99,3.35-2.18
		C139.59,74.89,140.16,73.1,140.32,70.71 M127.55,57.83c0,5.15,1.49,8.01,4.48,8.57c2.99,0.56,5.19-0.13,6.61-2.07
		c0.67-0.82,1.15-2.11,1.45-3.86c0.3-1.75,0.31-3.49,0.06-5.21c-0.26-1.72-0.87-3.24-1.85-4.59c-0.97-1.34-2.39-2.01-4.25-2.01
		c-2.54,0-4.25,0.93-5.15,2.8C128,53.32,127.55,55.44,127.55,57.83"/>
	<path class="st0" d="M151.77,83.23v-6.36h2.13c1.49,0,2.67-0.36,3.52-1.06s1.03-1.85,0.5-3.41l-10.41-29.68h8.62l6.05,21.05
		l5.26-18.37c0.45-1.79,1.64-2.69,3.58-2.69h5.37l-11.42,33.93c-0.9,2.46-2.02,4.21-3.36,5.26c-1.34,0.9-3.54,1.34-6.61,1.34
		C154.79,83.25,151.99,83.23,151.77,83.23"/>
	<path class="st0" d="M40.08,44.05c-0.86,0-1.74-0.14-2.4-0.42c0.03,0.32,0.03,0.66,0.03,1.03c0,0.69,1.07,1.25,2.38,1.25
		c1.32,0,2.38-0.56,2.38-1.25c0-0.37,0.01-0.7,0.03-1.03C41.84,43.9,40.95,44.05,40.08,44.05"/>
	<path class="st0" d="M40.08,22.4c-0.28,0-0.52-0.23-0.52-0.52v-6.27c0-0.28,0.23-0.51,0.52-0.51c0.28,0,0.52,0.23,0.52,0.51v6.27
		C40.6,22.17,40.37,22.4,40.08,22.4"/>
	<path class="st0" d="M40.08,22.4c-0.28,0-0.52-0.23-0.52-0.52v-6.27c0-0.28,0.23-0.51,0.52-0.51c0.28,0,0.52,0.23,0.52,0.51v6.27
		C40.6,22.17,40.37,22.4,40.08,22.4"/>
	<path class="st0" d="M48.04,26.28c-0.14,0-0.29-0.07-0.4-0.19c-0.18-0.22-0.15-0.54,0.07-0.72l4.64-3.86
		c0.21-0.19,0.54-0.15,0.72,0.07c0.18,0.22,0.15,0.54-0.07,0.72l-4.64,3.86C48.26,26.23,48.15,26.28,48.04,26.28"/>
	<path class="st0" d="M54.73,35.88c-0.03,0-0.07,0-0.1-0.01l-4.61-0.9c-0.28-0.05-0.46-0.32-0.41-0.6c0.05-0.28,0.32-0.46,0.6-0.41
		l4.61,0.9c0.28,0.05,0.46,0.32,0.41,0.6C55.18,35.71,54.97,35.88,54.73,35.88"/>
	<path class="st0" d="M32.17,26.28c-0.12,0-0.23-0.04-0.33-0.12l-4.64-3.86c-0.22-0.18-0.25-0.51-0.07-0.72
		c0.18-0.22,0.5-0.25,0.72-0.07l4.64,3.86c0.22,0.18,0.25,0.5,0.07,0.72C32.47,26.22,32.33,26.28,32.17,26.28"/>
	<path class="st0" d="M30.2,30.33c-0.04,0-0.08-0.01-0.12-0.02l-2.18-0.52c-0.27-0.07-0.44-0.34-0.38-0.62
		c0.07-0.28,0.34-0.45,0.62-0.38l2.18,0.52c0.27,0.07,0.45,0.34,0.38,0.62C30.65,30.16,30.43,30.33,30.2,30.33"/>
	<path class="st0" d="M25.36,35.9c-0.24,0-0.46-0.17-0.5-0.42c-0.06-0.28,0.13-0.55,0.41-0.6l4.73-0.93
		c0.28-0.06,0.55,0.13,0.6,0.41c0.05,0.28-0.13,0.55-0.41,0.6l-4.73,0.93C25.42,35.9,25.39,35.9,25.36,35.9"/>
	<path class="st0" d="M35.65,23.22c-0.2,0-0.39-0.11-0.47-0.31l-0.81-1.83c-0.11-0.26,0-0.56,0.26-0.68c0.26-0.12,0.56,0,0.68,0.26
		l0.81,1.83c0.11,0.26,0,0.56-0.26,0.68C35.79,23.21,35.71,23.22,35.65,23.22"/>
	<path class="st0" d="M44.48,23.22c-0.08,0-0.16-0.02-0.24-0.06c-0.25-0.14-0.35-0.44-0.21-0.7l0.92-1.76
		c0.14-0.25,0.44-0.35,0.7-0.21c0.25,0.14,0.35,0.44,0.21,0.7l-0.92,1.76C44.84,23.12,44.66,23.22,44.48,23.22"/>
	<path class="st0" d="M49.97,30.1c-0.24,0-0.46-0.17-0.5-0.42c-0.06-0.28,0.13-0.55,0.41-0.6l1.69-0.33
		c0.28-0.06,0.55,0.13,0.6,0.41c0.05,0.28-0.13,0.55-0.41,0.6l-1.69,0.33C50.04,30.09,50.01,30.1,49.97,30.1"/>
	<path class="st0" d="M49.53,39.98c-0.12,0-0.24-0.04-0.33-0.13l-1.5-1.27c-0.21-0.19-0.25-0.51-0.06-0.72
		c0.19-0.21,0.51-0.25,0.72-0.06l1.5,1.28c0.22,0.19,0.25,0.51,0.06,0.72C49.82,39.92,49.67,39.98,49.53,39.98"/>
	<path class="st0" d="M30.69,40.08c-0.15,0-0.31-0.07-0.41-0.2c-0.18-0.22-0.14-0.54,0.09-0.72l1.55-1.21
		c0.23-0.17,0.55-0.14,0.72,0.09c0.17,0.22,0.14,0.54-0.09,0.72L31,39.97C30.91,40.04,30.8,40.08,30.69,40.08"/>
	<path class="st0" d="M40.09,24.77c-0.53-0.03-7.13-0.15-7.13,7.25c0,5.75,3.94,5.55,4.64,10.89c0.47,0.27,1.33,0.52,2.48,0.52
		c1.15,0,2.04-0.25,2.5-0.53c0.7-5.32,4.64-5.14,4.64-10.88C47.22,24.63,40.63,24.76,40.09,24.77z"/>
</g>
</svg>
